<svg width="12" height="17" viewBox="0 0 12 17" fill="none" xmlns="http://www.w3.org/2000/svg">
<path d="M1.66667 16.6667C1.20833 16.6667 0.815972 16.5035 0.489583 16.1771C0.163194 15.8507 0 15.4583 0 15V6.66667C0 6.20833 0.163194 5.81597 0.489583 5.48958C0.815972 5.16319 1.20833 5 1.66667 5H10C10.4583 5 10.8507 5.16319 11.1771 5.48958C11.5035 5.81597 11.6667 6.20833 11.6667 6.66667V15C11.6667 15.4583 11.5035 15.8507 11.1771 16.1771C10.8507 16.5035 10.4583 16.6667 10 16.6667H1.66667ZM1.66667 15H10V6.66667H1.66667V15ZM5 14.1667H6.66667V13.3333H5V14.1667ZM5 12.5H6.66667C6.66667 12.2361 6.73264 11.9965 6.86458 11.7812C6.99653 11.566 7.13889 11.3542 7.29167 11.1458C7.45833 10.9097 7.60417 10.6562 7.72917 10.3854C7.85417 10.1146 7.91667 9.83333 7.91667 9.54167C7.91667 8.97222 7.71528 8.48958 7.3125 8.09375C6.90972 7.69792 6.41667 7.5 5.83333 7.5C5.25 7.5 4.75694 7.69792 4.35417 8.09375C3.95139 8.48958 3.75 8.97222 3.75 9.54167C3.75 9.83333 3.81597 10.1111 3.94792 10.375C4.07986 10.6389 4.22222 10.8889 4.375 11.125C4.52778 11.3472 4.67014 11.566 4.80208 11.7812C4.93403 11.9965 5 12.2361 5 12.5ZM0.833333 3.75C0.833333 3.40278 0.954861 3.10764 1.19792 2.86458C1.44097 2.62153 1.73611 2.5 2.08333 2.5H9.58333C9.93056 2.5 10.2257 2.62153 10.4688 2.86458C10.7118 3.10764 10.8333 3.40278 10.8333 3.75H0.833333ZM1.66667 1.25C1.66667 0.902778 1.78819 0.607639 2.03125 0.364583C2.27431 0.121528 2.56944 0 2.91667 0H8.75C9.09722 0 9.39236 0.121528 9.63542 0.364583C9.87847 0.607639 10 0.902778 10 1.25H1.66667Z" fill="black"/>
</svg>
